<svg width="24" height="24" viewBox="0 0 24 24" fill="none" xmlns="http://www.w3.org/2000/svg">
<path fill-rule="evenodd" clip-rule="evenodd" d="M15.7031 8C16.4565 8 17.0596 8.16263 17.4446 8.31436L17.1812 9.93693L17.0071 9.8506C16.6485 9.69887 16.1883 9.55345 15.5528 9.56377C14.7921 9.56377 14.44 9.89649 14.44 10.2077C14.4357 10.5583 14.8516 10.7895 15.5309 11.1359C16.6517 11.6701 17.1696 12.3183 17.1622 13.1699C17.147 14.7239 15.8212 15.7277 13.7785 15.7277C12.9073 15.7183 12.068 15.5372 11.6141 15.3282L11.8868 13.6523L12.1372 13.7714C12.7754 14.0509 13.1885 14.1643 13.9662 14.1643C14.5247 14.1643 15.1239 13.935 15.1287 13.4332C15.1324 13.1055 14.878 12.8714 14.1217 12.5046C13.3847 12.1465 12.4083 11.5463 12.4191 10.4706C12.4306 9.01536 13.7832 8 15.7031 8ZM9.66987 8.13008L8.45491 15.6167H10.3972L11.613 8.13008H9.66987ZM22.4272 8.13724H20.9258C20.4606 8.13724 20.1126 8.27047 19.9083 8.75807L17.0225 15.6191H19.063C19.063 15.6191 19.3966 14.6965 19.4721 14.494C19.5769 14.494 20.0705 14.4947 20.5936 14.4954C21.1832 14.4963 21.8103 14.4972 21.9605 14.4972C22.0187 14.7592 22.197 15.6191 22.197 15.6191H24L22.4272 8.13724ZM20.8054 10.8698C20.8054 10.8698 20.1918 12.5313 20.0312 12.9626H21.6441C21.5664 12.5879 21.1943 10.8008 21.1943 10.8008L21.0629 10.1553C21.0117 10.3022 20.9405 10.4961 20.8859 10.645L20.8858 10.645C20.8359 10.781 20.7998 10.8793 20.8054 10.8698ZM6.82523 8.13552L4.92282 13.2409L4.72017 12.2033C4.72017 12.2033 4.72016 12.2032 4.72016 12.2032L4.03887 8.76295C3.92116 8.28883 3.58004 8.14742 3.15807 8.13093H0.0248538L0 8.28668C0.76214 8.48042 1.44366 8.75997 2.04093 9.10772L3.76849 15.6102L5.82439 15.6077L8.88345 8.13552H6.82523Z" fill="url(#paint0_linear)"/>
<defs>
<linearGradient id="paint0_linear" x1="3.87556" y1="10.6584" x2="14.1744" y2="20.1206" gradientUnits="userSpaceOnUse">
<stop stop-color="#222357"/>
<stop offset="1" stop-color="#254AA5"/>
</linearGradient>
</defs>
</svg>
